<?xml version="1.0" encoding="UTF-8" standalone="no"?><!-- Generator: Gravit.io --><svg xmlns="http://www.w3.org/2000/svg" xmlns:xlink="http://www.w3.org/1999/xlink" style="isolation:isolate" viewBox="-140.504 1108.73 786.504 425.27" width="786.504pt" height="425.27pt"><linearGradient id="_lgradient_1" x1="0" y1="0.5" x2="1" y2="0.5" gradientTransform="matrix(786.504,0,0,425.27,-140.504,1108.73)" gradientUnits="userSpaceOnUse"><stop offset="0%" stop-opacity="1" style="stop-color:rgb(202,109,255)"/><stop offset="98.26086956521739%" stop-opacity="1" style="stop-color:rgb(178,171,242)"/></linearGradient><path d=" M -115 1177 C -88 1115 28.063 1095.873 125 1117 C 203 1134 248.044 1135.459 276 1138 C 298 1140 400 1138 481 1138 C 562 1138 646 1188 646 1262 C 646 1312.167 633.791 1386.682 587.001 1433 C 532.695 1486.758 409.741 1482.83 386 1484 C 349.545 1485.797 307.289 1474.477 232 1499 C 172.834 1518.272 131 1534 52 1534 C -27 1534 -59.34 1507.98 -103 1454 C -158 1386 -144 1253 -115 1177 Z " fill="url(#_lgradient_1)"/></svg>